<svg width="1442" height="1748" viewBox="0 0 1442 1748" fill="none" xmlns="http://www.w3.org/2000/svg">
<path d="M442 -232C442 -243.046 450.956 -252.021 461.999 -251.8C673.656 -247.568 878.709 -176.255 1047.47 -47.87C1221.54 84.5549 1347.39 270.396 1405.75 481.182C1464.1 691.968 1451.75 916.073 1370.57 1119.16C1289.39 1322.26 1143.86 1493.13 956.29 1605.62C768.717 1718.1 549.438 1765.98 332.049 1741.94C114.66 1717.89 -88.8498 1623.23 -247.303 1472.47C-405.756 1321.71 -510.413 1123.16 -545.241 907.236C-579.005 697.899 -545.331 483.426 -449.371 294.725C-444.364 284.879 -432.228 281.207 -422.485 286.409L-350.206 325.002C-340.463 330.205 -336.804 342.312 -341.783 352.172C-425.197 517.335 -454.378 704.812 -424.86 887.819C-394.279 1077.41 -302.384 1251.76 -163.252 1384.13C-24.1199 1516.51 154.575 1599.62 345.456 1620.74C536.338 1641.86 728.878 1599.81 893.58 1501.04C1058.28 1402.27 1186.06 1252.23 1257.34 1073.91C1328.62 895.579 1339.47 698.8 1288.23 513.717C1236.99 328.633 1126.48 165.453 973.639 49.1755C826.107 -63.0614 646.984 -125.624 462 -129.836C450.957 -130.087 442 -139.018 442 -150.064V-232Z" fill="#EEEEEE" fill-opacity="0.5"/>
</svg>
