<svg width="3222" height="3065" viewBox="0 0 3222 3065" fill="none" xmlns="http://www.w3.org/2000/svg">
<path d="M1134.44 3056.78C1129.94 3060.87 1122.98 3060.53 1118.93 3056C974.565 2894.77 862.101 2707.68 787.783 2505.06C712.205 2299.01 677.555 2080.93 685.813 1863.27C694.07 1645.61 745.073 1432.64 835.908 1236.51C926.743 1040.38 1055.63 864.935 1215.22 720.193C1374.8 575.451 1561.96 464.246 1766 392.928C1970.03 321.609 2186.96 291.574 2404.39 304.536C2621.82 317.499 2835.49 373.206 3033.21 468.476C3227.64 562.159 3402.89 692.295 3549.31 851.664C3553.42 856.137 3553.08 863.097 3548.58 867.179L3467.66 940.574C3463.16 944.656 3456.2 944.312 3452.09 939.841C3317.5 793.517 3156.48 674.018 2977.88 587.957C2795.97 500.308 2599.39 449.058 2399.36 437.132C2199.32 425.206 1999.75 452.839 1812.04 518.452C1624.32 584.065 1452.14 686.373 1305.32 819.536C1158.5 952.699 1039.92 1114.11 956.356 1294.55C872.788 1474.99 825.865 1670.92 818.269 1871.17C810.672 2071.42 842.549 2272.05 912.081 2461.62C980.353 2647.75 1083.62 2819.64 1216.15 2967.82C1220.2 2972.35 1219.86 2979.31 1215.36 2983.39L1134.44 3056.78Z" fill="#EEEEEE" fill-opacity="0.5"/>
</svg>
