<svg xmlns="http://www.w3.org/2000/svg" width="642" height="276" fill="none" viewBox="0 0 642 276"><g filter="url(#filter0_bf)"><path fill="#BB7226" d="M6 138C6 65.0984 65.0984 6 138 6H504C576.902 6 636 65.0984 636 138C636 210.902 576.902 270 504 270H138C65.0984 270 6 210.902 6 138Z"/><path fill="url(#paint0_linear)" fill-opacity=".75" d="M6 138C6 65.0984 65.0984 6 138 6H504C576.902 6 636 65.0984 636 138C636 210.902 576.902 270 504 270H138C65.0984 270 6 210.902 6 138Z"/></g><g filter="url(#filter1_bf)"><path fill="#333" fill-opacity=".7" fill-rule="evenodd" d="M138 4H504C578.006 4 638 63.9939 638 138C638 212.006 578.006 272 504 272H138C63.9938 272 4 212.006 4 138C4 63.9939 63.9939 4 138 4ZM138 6C65.0984 6 6 65.0984 6 138C6 210.902 65.0984 270 138 270H504C576.902 270 636 210.902 636 138C636 65.0984 576.902 6 504 6H138Z" clip-rule="evenodd"/></g><g filter="url(#filter2_i)"><path fill="#BB7226" d="M32.8657 138.5C32.8657 78.5771 81.4428 30 141.366 30H497.812C557.734 30 606.312 78.5771 606.312 138.5C606.312 198.423 557.734 247 497.812 247H141.366C81.4428 247 32.8657 198.423 32.8657 138.5Z"/><path fill="url(#paint1_linear)" fill-opacity=".75" d="M32.8657 138.5C32.8657 78.5771 81.4428 30 141.366 30H497.812C557.734 30 606.312 78.5771 606.312 138.5C606.312 198.423 557.734 247 497.812 247H141.366C81.4428 247 32.8657 198.423 32.8657 138.5Z"/></g><g filter="url(#filter3_i)"><path fill="#333" fill-opacity=".7" fill-rule="evenodd" d="M141.366 28H497.812C558.839 28 608.312 77.4725 608.312 138.5C608.312 199.527 558.839 249 497.812 249H141.366C80.3383 249 30.8657 199.527 30.8657 138.5C30.8657 77.4725 80.3383 28 141.366 28ZM141.366 30C81.4428 30 32.8657 78.5771 32.8657 138.5C32.8657 198.423 81.4428 247 141.366 247H497.812C557.734 247 606.312 198.423 606.312 138.5C606.312 78.5771 557.734 30 497.812 30H141.366Z" clip-rule="evenodd"/></g><g style="mix-blend-mode:darken" filter="url(#filter4_di)" opacity=".8"><path fill="#955F26" fill-opacity=".7" d="M262.088 137.775L147.141 206.957L147.42 67.828L262.088 137.775Z"/></g><g style="mix-blend-mode:multiply"><path fill="#333" fill-opacity=".8" d="M298.99 140.408C300.654 140.408 302.116 140.195 303.374 139.768C304.654 139.341 305.71 138.744 306.542 137.976C307.396 137.187 308.036 136.237 308.462 135.128C308.889 134.019 309.102 132.781 309.102 131.416C309.102 130.072 308.889 128.867 308.462 127.8C308.057 126.733 307.438 125.827 306.606 125.08C305.774 124.333 304.718 123.768 303.438 123.384C302.18 122.979 300.697 122.776 298.99 122.776H292.142V140.408H298.99ZM298.99 116.92C301.998 116.92 304.601 117.272 306.798 117.976C309.017 118.68 310.841 119.672 312.27 120.952C313.721 122.211 314.798 123.736 315.502 125.528C316.206 127.299 316.558 129.261 316.558 131.416C316.558 133.613 316.185 135.629 315.438 137.464C314.692 139.277 313.582 140.845 312.11 142.168C310.638 143.469 308.804 144.493 306.606 145.24C304.43 145.965 301.892 146.328 298.99 146.328H292.142V163H284.654V116.92H298.99ZM358.021 156.728V163H331.397V116.92H338.885V156.728H358.021ZM396.523 145.72L390.187 128.888C389.675 127.587 389.153 125.933 388.619 123.928C388.385 124.931 388.129 125.859 387.851 126.712C387.574 127.544 387.318 128.28 387.083 128.92L380.747 145.72H396.523ZM410.699 163H404.907C404.246 163 403.713 162.84 403.307 162.52C402.902 162.179 402.593 161.763 402.379 161.272L398.539 151.096H378.699L374.859 161.272C374.689 161.699 374.39 162.093 373.963 162.456C373.537 162.819 373.003 163 372.363 163H366.571L384.843 116.92H392.427L410.699 163ZM437.756 144.952V163H430.3V144.952L413.468 116.92H420.028C420.689 116.92 421.212 117.08 421.596 117.4C421.98 117.72 422.3 118.125 422.556 118.616L431.996 135.128C432.422 135.96 432.806 136.749 433.148 137.496C433.51 138.243 433.83 138.979 434.108 139.704C434.342 138.957 434.63 138.221 434.972 137.496C435.313 136.749 435.697 135.96 436.124 135.128L445.5 118.616C445.713 118.189 446.022 117.805 446.428 117.464C446.833 117.101 447.356 116.92 447.996 116.92H454.588L437.756 144.952Z"/></g><defs><filter id="filter0_bf" width="638" height="272" x="2" y="2" color-interpolation-filters="sRGB" filterUnits="userSpaceOnUse"><feFlood flood-opacity="0" result="BackgroundImageFix"/><feGaussianBlur in="BackgroundImage" stdDeviation="2"/><feComposite in2="SourceAlpha" operator="in" result="effect1_backgroundBlur"/><feBlend in="SourceGraphic" in2="effect1_backgroundBlur" mode="normal" result="shape"/><feGaussianBlur result="effect2_foregroundBlur" stdDeviation="2"/></filter><filter id="filter1_bf" width="642" height="276" x="0" y="0" color-interpolation-filters="sRGB" filterUnits="userSpaceOnUse"><feFlood flood-opacity="0" result="BackgroundImageFix"/><feGaussianBlur in="BackgroundImage" stdDeviation="2"/><feComposite in2="SourceAlpha" operator="in" result="effect1_backgroundBlur"/><feBlend in="SourceGraphic" in2="effect1_backgroundBlur" mode="normal" result="shape"/><feGaussianBlur result="effect2_foregroundBlur" stdDeviation="2"/></filter><filter id="filter2_i" width="573.446" height="221" x="32.866" y="30" color-interpolation-filters="sRGB" filterUnits="userSpaceOnUse"><feFlood flood-opacity="0" result="BackgroundImageFix"/><feBlend in="SourceGraphic" in2="BackgroundImageFix" mode="normal" result="shape"/><feColorMatrix in="SourceAlpha" result="hardAlpha" type="matrix" values="0 0 0 0 0 0 0 0 0 0 0 0 0 0 0 0 0 0 127 0"/><feOffset dy="4"/><feGaussianBlur stdDeviation="2"/><feComposite in2="hardAlpha" k2="-1" k3="1" operator="arithmetic"/><feColorMatrix type="matrix" values="0 0 0 0 0 0 0 0 0 0 0 0 0 0 0 0 0 0 0.25 0"/><feBlend in2="shape" mode="normal" result="effect1_innerShadow"/></filter><filter id="filter3_i" width="577.446" height="225" x="30.866" y="28" color-interpolation-filters="sRGB" filterUnits="userSpaceOnUse"><feFlood flood-opacity="0" result="BackgroundImageFix"/><feBlend in="SourceGraphic" in2="BackgroundImageFix" mode="normal" result="shape"/><feColorMatrix in="SourceAlpha" result="hardAlpha" type="matrix" values="0 0 0 0 0 0 0 0 0 0 0 0 0 0 0 0 0 0 127 0"/><feOffset dy="4"/><feGaussianBlur stdDeviation="2"/><feComposite in2="hardAlpha" k2="-1" k3="1" operator="arithmetic"/><feColorMatrix type="matrix" values="0 0 0 0 0 0 0 0 0 0 0 0 0 0 0 0 0 0 0.25 0"/><feBlend in2="shape" mode="normal" result="effect1_innerShadow"/></filter><filter id="filter4_di" width="122.947" height="147.129" x="143.141" y="67.828" color-interpolation-filters="sRGB" filterUnits="userSpaceOnUse"><feFlood flood-opacity="0" result="BackgroundImageFix"/><feColorMatrix in="SourceAlpha" type="matrix" values="0 0 0 0 0 0 0 0 0 0 0 0 0 0 0 0 0 0 127 0"/><feOffset dy="4"/><feGaussianBlur stdDeviation="2"/><feColorMatrix type="matrix" values="0 0 0 0 0 0 0 0 0 0 0 0 0 0 0 0 0 0 0.25 0"/><feBlend in2="BackgroundImageFix" mode="normal" result="effect1_dropShadow"/><feBlend in="SourceGraphic" in2="effect1_dropShadow" mode="normal" result="shape"/><feColorMatrix in="SourceAlpha" result="hardAlpha" type="matrix" values="0 0 0 0 0 0 0 0 0 0 0 0 0 0 0 0 0 0 127 0"/><feOffset dy="4"/><feGaussianBlur stdDeviation="2"/><feComposite in2="hardAlpha" k2="-1" k3="1" operator="arithmetic"/><feColorMatrix type="matrix" values="0 0 0 0 0 0 0 0 0 0 0 0 0 0 0 0 0 0 0.25 0"/><feBlend in2="shape" mode="normal" result="effect2_innerShadow"/></filter><linearGradient id="paint0_linear" x1="321" x2="321" y1="6" y2="270" gradientUnits="userSpaceOnUse"><stop stop-color="#fff"/><stop offset="1" stop-color="#fff" stop-opacity="0"/></linearGradient><linearGradient id="paint1_linear" x1="319.589" x2="319.589" y1="30" y2="247" gradientUnits="userSpaceOnUse"><stop stop-color="#fff"/><stop offset="1" stop-color="#fff" stop-opacity="0"/></linearGradient></defs></svg>