<svg xmlns="http://www.w3.org/2000/svg" width="1295" height="1292" fill="none" viewBox="0 0 1295 1292"><path fill="#EEE" fill-opacity=".5" d="M485.443 1284.83L7 490.439L809.688 7.00008L1288.13 801.392L485.443 1284.83Z"/><path stroke="#EEE" stroke-opacity=".5" stroke-width="5" d="M483.302 1286.12L484.591 1288.26L486.733 1286.97L1289.42 803.534L1291.56 802.244L1290.27 800.103L811.829 5.71026L810.539 3.56868L808.398 4.8585L5.71018 488.298L3.5686 489.588L4.85842 491.729L483.302 1286.12Z"/><path fill="#2D96B0" stroke="#EEE" stroke-width="5" d="M489.443 1163.89L490.733 1166.03L492.875 1164.74L1163.35 760.929L1165.49 759.64L1164.2 757.498L774.27 110.07L772.98 107.928L770.839 109.218L100.364 513.028L98.2229 514.318L99.5127 516.46L489.443 1163.89Z"/></svg>